<svg xmlns="http://www.w3.org/2000/svg" viewBox="0 0 142 8"><path d="M22.731 6.71c3.913.209 7.198.357 9.878.433 2.675.073 6.538.11 11.578.104 7.91.037 15.475.016 22.7-.06 7.23-.078 15.937-.262 26.125-.563 20.398-.603 33.917-1.26 40.555-1.859 6.643-.606 9.172-1.361 7.596-2.262-.975-.415-2.614-.675-4.926-.78-2.31-.108-8.466-.3-18.46-.604C101.718.645 85.252.268 68.313.099 51.387-.073 37.106-.016 25.495.237L10.239.653c-2.874-.032-5.258.142-7.16.522-1.878.298-2.9.769-3.06 1.41C-.423 4.352 7.16 5.711 22.73 6.711" fill="#B8E063" fill-rule="evenodd"/></svg>