<svg xmlns="http://www.w3.org/2000/svg" viewBox="0 0 77 56"><path d="M9.862 1c.681-.04 2.407 1.716 3.971 4.045 1.788 3.028 3.615 7.16 5.066 11.797 1.463 4.628 2.547 9.735 3.167 14.514.628 4.782.807 9.22.764 12.563a94.874 94.874 0 01-.183 4.129c-.104 1.05-.199 1.753-.275 2.035-.057.48-.177.994-.346 1.49-.186.492-.42.97-.68 1.385-.522.831-1.154 1.413-1.749 1.453-.596.041-1.157-.453-1.544-1.712-.197-.631-.336-1.448-.44-2.496a26.66 26.66 0 01-.147-1.757c-.04-.645-.037-1.347-.08-2.13.358-4.37.318-9.05-.071-13.529a89.278 89.278 0 00-1.95-12.4c-.45-1.811-.86-3.503-1.322-4.97-.227-.736-.412-1.448-.638-2.08l-.604-1.767c-.353-1.09-.716-1.918-.945-2.539a51.776 51.776 0 01-.419-1.094c-.473-1.292-.863-2.357-1.142-3.256-.31-.869-.521-1.56-.643-2.103-.244-1.082-.137-1.556.21-1.577zm27.03 2.512c.412-.752 1.094-.137 2.067 1.927.242.516.503 1.184.813 1.994.316.811.644 1.776 1.004 2.896.725 2.234 1.532 5.094 2.328 8.611.8 3.513 1.318 6.582 1.631 9.139.336 2.555.528 5.245.654 8.048.062 1.786.101 3.156.05 4.091a43.162 43.162 0 01-.282 3.428 46.308 46.308 0 01-.289 1.855 34.503 34.503 0 01-.344 1.567c-.117.475-.234.905-.358 1.288-.13.381-.263.715-.396 1.005-.533 1.157-1.087 1.586-1.664 1.328-.42-.189-.71-.623-.87-1.296-.22-.699-.27-1.5-.214-2.434l-.048-2.526-.103-2.528c-.149-3.837-.353-8.531-.844-14.113a201.625 201.625 0 00-.9-8.277c-.16-1.366-.37-2.716-.553-4.066l-.31-2.014c-.1-.671-.203-1.34-.32-2.003l-.38-2.249-.328-1.766c-.179-1.025-.328-1.722-.393-2.109-.137-.772-.12-1.369.048-1.796zm33.567-.952c.168.427.185 1.024.048 1.796-.065.387-.214 1.084-.393 2.108l-.328 1.767-.38 2.249a72.049 72.049 0 00-.32 2.003l-.311 2.014c-.181 1.35-.392 2.7-.552 4.066a201.625 201.625 0 00-.9 8.277c-.491 5.582-.695 10.276-.844 14.113l-.103 2.528-.05 2.526c.059.934.008 1.735-.211 2.434-.16.672-.451 1.107-.871 1.296-.577.258-1.131-.171-1.664-1.328-.133-.29-.265-.625-.396-1.005a19.51 19.51 0 01-.36-1.288 35.989 35.989 0 01-.342-1.567 46.308 46.308 0 01-.29-1.855 43.162 43.162 0 01-.28-3.428c-.052-.935-.014-2.305.049-4.091.126-2.803.318-5.493.654-8.048.313-2.557.83-5.626 1.63-9.14.797-3.516 1.604-6.376 2.329-8.611.36-1.12.687-2.084 1.003-2.895.31-.811.572-1.478.814-1.994.972-2.064 1.654-2.68 2.068-1.927zM31.194 20.636c.321-.39.586-.34.806-.013.441.662.69 2.389.874 4.064.063 1.992.026 4.254.003 6.57a336.368 336.368 0 00-.022 6.854c.032 4.338.202 7.902.044 8.462-.02.448-.24 1-.575 1.5-.339.499-.799.95-1.299 1.146-.5.194-1.04.129-1.542-.441-.249-.285-.493-.696-.71-1.265a11.411 11.411 0 01-.539-2.194c.025-2.587.1-5.236.24-7.757.137-2.52.336-4.912.567-6.985.464-4.148 1.016-7.028 1.061-7.265a16.11 16.11 0 01.568-1.74c.188-.436.364-.74.524-.936zM.335 19.329c.555-.148 1.771.73 2.917 1.926 1.29 1.6 2.662 3.804 3.91 6.275 1.25 2.469 2.37 5.196 3.248 7.767 1.771 5.155 2.537 9.59 2.433 10.234.061.539-.099 1.183-.415 1.707-.312.525-.77.929-1.296 1.033-.527.106-1.122-.085-1.704-.708-.292-.311-.576-.731-.855-1.28-.29-.547-.553-1.222-.826-2.05-.327-2.395-.858-4.914-1.509-7.313a70.81 70.81 0 00-2.159-6.64c-1.503-3.921-2.892-6.533-2.979-6.763a24.114 24.114 0 01-.717-1.865 7.694 7.694 0 01-.345-1.26c-.107-.663.016-.991.297-1.063zM54.61 9.986c.324-.279.552.007.713.635.321 1.269.371 3.832.377 6.231-.132 2.732-.374 5.712-.612 8.746-.24 3.03-.479 6.113-.673 8.952-.394 5.66-.613 10.366-.819 11.012-.065.572-.327 1.171-.69 1.65-.366.477-.839.833-1.32.836-.483.001-.974-.36-1.375-1.388-.2-.514-.38-1.197-.519-2.079a26.71 26.71 0 01-.262-3.258c.586-6.97 1.41-14.091 2.255-19.389.076-.482.152-.95.226-1.402l.112-.666c.699-4.14 1.29-6.811 1.346-7.06.248-.848.48-1.479.682-1.949.211-.452.398-.732.56-.871zm21.276 18.615c.358-.212.597-.134.752.124.308.521.274 1.731.19 2.896-.248 1.358-.629 2.882-1.007 4.447a173.45 173.45 0 00-1.072 4.636c-.637 2.941-1.026 5.382-1.259 5.735-.087.3-.377.637-.766.921-.39.281-.889.511-1.385.56-.495.049-.988-.084-1.367-.552-.189-.234-.353-.553-.467-.973a5.993 5.993 0 01-.165-1.574 89.083 89.083 0 011.413-5.212 66.903 66.903 0 011.602-4.635c1.07-2.73 2.025-4.59 2.103-4.742.295-.459.564-.814.796-1.084.242-.264.452-.441.632-.547z" fill="#003952" fill-rule="evenodd"/></svg>